<?xml version="1.0" standalone="no"?>
<!DOCTYPE svg PUBLIC "-//W3C//DTD SVG 20010904//EN"
 "http://www.w3.org/TR/2001/REC-SVG-20010904/DTD/svg10.dtd">
<svg version="1.0" xmlns="http://www.w3.org/2000/svg"
 width="2085.000000pt" height="2085.000000pt" viewBox="0 0 2085.000000 2085.000000"
 preserveAspectRatio="xMidYMid meet">
<metadata>
Created by potrace 1.14, written by Peter Selinger 2001-2017
</metadata>
<g transform="translate(0.000000,2085.000000) scale(0.100000,-0.100000)"
fill="#000000" stroke="none">
<path d="M10057 20844 c-1 -1 -65 -5 -142 -8 -77 -4 -165 -8 -195 -11 -30 -2
-92 -7 -138 -10 -46 -3 -98 -7 -115 -10 -18 -2 -63 -7 -102 -10 -87 -8 -152
-15 -185 -20 -14 -2 -52 -7 -85 -11 -33 -3 -68 -8 -79 -10 -10 -2 -44 -6 -75
-9 -31 -4 -63 -8 -71 -10 -8 -3 -28 -6 -45 -9 -78 -12 -122 -19 -140 -22 -11
-2 -48 -9 -83 -14 -34 -6 -120 -22 -190 -36 -70 -14 -138 -27 -152 -30 -14 -3
-74 -17 -135 -31 -60 -14 -137 -31 -170 -38 -451 -101 -1253 -371 -1676 -564
-35 -16 -102 -45 -149 -66 -120 -52 -514 -246 -578 -284 -29 -17 -59 -31 -67
-31 -7 0 -15 -4 -17 -8 -1 -4 -39 -27 -83 -51 -109 -58 -452 -264 -605 -362
-197 -127 -611 -417 -640 -449 -3 -3 -23 -18 -45 -34 -44 -33 -324 -254 -341
-271 -6 -5 -35 -30 -64 -55 -29 -25 -58 -49 -64 -55 -6 -5 -43 -37 -81 -70
-38 -33 -94 -82 -124 -110 -412 -381 -749 -736 -1045 -1100 -54 -66 -106 -129
-115 -140 -9 -11 -38 -49 -66 -85 -27 -36 -52 -67 -55 -70 -7 -7 -151 -203
-235 -320 -73 -103 -315 -467 -315 -474 0 -3 -17 -31 -38 -63 -42 -62 -40 -59
-184 -310 -180 -314 -370 -693 -498 -993 -18 -41 -41 -95 -52 -119 -98 -217
-313 -819 -384 -1076 -14 -49 -29 -103 -34 -120 -47 -167 -77 -279 -106 -403
-34 -141 -39 -162 -48 -207 -12 -58 -56 -274 -60 -300 -3 -16 -10 -55 -16 -85
-6 -30 -13 -71 -16 -90 -2 -19 -6 -44 -9 -55 -2 -11 -14 -85 -25 -165 -12 -80
-23 -156 -25 -170 -2 -14 -6 -50 -10 -80 -3 -30 -8 -73 -12 -95 -3 -22 -6 -53
-8 -70 -1 -16 -6 -64 -9 -105 -11 -118 -15 -159 -21 -245 -3 -44 -8 -107 -10
-140 -22 -299 -22 -1002 0 -1265 2 -25 6 -88 9 -140 4 -52 9 -113 11 -135 2
-22 7 -71 10 -110 6 -72 13 -138 20 -190 2 -16 7 -52 10 -80 3 -27 8 -63 10
-80 2 -16 7 -52 10 -80 3 -27 8 -61 11 -75 2 -14 6 -34 8 -45 2 -11 7 -47 11
-80 3 -32 8 -62 10 -65 2 -3 6 -24 9 -46 3 -21 12 -75 20 -119 8 -44 17 -91
20 -105 2 -14 16 -81 31 -150 14 -69 28 -138 31 -155 10 -58 123 -491 168
-645 205 -704 513 -1446 862 -2077 13 -24 36 -64 50 -90 137 -249 349 -585
562 -893 97 -140 327 -441 465 -610 102 -124 142 -172 291 -340 298 -337 753
-777 1086 -1051 36 -30 67 -56 70 -59 3 -3 39 -32 80 -65 41 -33 82 -65 90
-72 8 -7 51 -39 95 -73 44 -33 91 -69 105 -80 14 -11 66 -48 115 -84 50 -36
95 -70 102 -75 6 -6 114 -79 240 -163 193 -129 313 -205 526 -332 210 -125
691 -377 892 -466 28 -12 77 -35 110 -50 78 -36 238 -104 345 -147 47 -18 94
-37 105 -42 22 -10 54 -22 70 -27 6 -2 69 -25 140 -52 149 -56 497 -174 553
-187 9 -3 87 -25 172 -50 85 -25 165 -47 177 -49 13 -3 37 -9 55 -15 35 -11
147 -39 188 -47 14 -2 32 -7 40 -10 8 -3 53 -14 100 -24 47 -10 118 -25 157
-34 69 -15 89 -19 158 -31 17 -3 37 -8 45 -10 8 -2 38 -7 65 -11 28 -3 53 -8
56 -10 7 -4 249 -44 299 -49 19 -2 49 -6 65 -9 25 -5 75 -11 155 -20 25 -3
133 -17 170 -22 19 -2 68 -7 110 -10 41 -3 86 -7 100 -9 14 -3 68 -7 120 -11
52 -3 113 -7 135 -9 283 -25 1072 -25 1370 0 28 2 84 7 125 10 160 11 283 23
420 40 19 3 58 7 85 10 28 4 61 8 75 10 14 2 45 7 70 10 25 3 99 15 165 25 66
10 136 21 155 24 125 19 586 117 741 157 42 11 85 22 95 24 10 2 60 15 109 29
498 136 1028 323 1460 516 22 9 58 25 80 35 38 17 203 95 350 166 264 126 726
387 974 550 41 27 75 49 77 49 5 0 206 137 337 229 345 243 691 523 1036 836
163 148 621 614 751 764 30 35 63 73 74 85 105 119 324 389 447 551 157 207
402 560 469 675 11 19 42 69 69 110 197 306 499 874 668 1260 105 237 322 788
328 830 1 3 26 82 57 175 112 336 257 887 302 1145 2 14 7 36 10 50 3 14 8 39
11 55 3 17 12 66 21 110 8 44 17 96 19 115 3 19 7 46 10 60 3 14 7 43 10 65 3
22 10 63 15 90 5 28 12 75 15 105 4 30 8 67 11 81 4 29 11 84 19 164 3 28 8
61 10 75 2 14 7 63 11 110 3 47 7 101 9 120 2 19 6 80 10 135 4 55 8 120 10
145 6 63 17 472 18 605 0 133 -12 542 -18 605 -4 40 -9 120 -20 275 -2 28 -6
77 -9 110 -4 33 -9 78 -11 100 -9 88 -17 161 -20 185 -2 14 -7 48 -10 75 -3
28 -8 61 -10 75 -2 14 -7 45 -10 70 -7 55 -14 97 -20 130 -3 14 -7 39 -9 55
-3 17 -10 59 -15 95 -14 84 -46 256 -66 345 -8 39 -17 81 -20 95 -12 66 -72
312 -112 460 -24 91 -45 170 -47 175 -41 165 -235 744 -301 900 -7 17 -34 84
-60 150 -81 204 -182 430 -301 672 -101 207 -138 278 -264 508 -70 127 -203
350 -275 460 -41 64 -75 117 -75 120 0 10 -260 383 -371 533 -177 237 -468
597 -563 698 -6 6 -49 53 -96 105 -501 553 -1096 1080 -1705 1510 -166 118
-472 319 -484 319 -5 0 -11 4 -13 8 -6 15 -371 228 -618 361 -142 77 -479 241
-636 311 -76 34 -157 70 -179 80 -178 80 -782 303 -935 345 -8 3 -82 25 -165
50 -132 40 -387 111 -434 120 -9 2 -52 12 -96 24 -44 11 -91 22 -105 25 -14 2
-32 7 -40 10 -8 3 -28 7 -45 10 -16 2 -62 11 -100 20 -126 27 -311 62 -375 72
-19 2 -48 8 -65 11 -16 3 -40 7 -52 9 -22 2 -88 13 -124 19 -9 2 -40 6 -70 10
-30 3 -61 8 -69 10 -8 2 -40 7 -70 10 -30 3 -71 8 -90 10 -19 3 -60 7 -90 10
-30 2 -71 7 -90 9 -64 9 -174 18 -370 31 -58 3 -130 9 -160 12 -53 4 -897 12
-903 7z"/>
</g>
</svg>
